<?xml version="1.0" encoding="UTF-8"?>
<svg xmlns="http://www.w3.org/2000/svg" xmlns:xlink="http://www.w3.org/1999/xlink" width="18px" height="12px" viewBox="0 0 18 12" version="1.1">
<g id="surface1">
<path style=" stroke:none;fill-rule:nonzero;fill:rgb(0%,27.843137%,95.686275%);fill-opacity:1;" d="M 9.273438 9.601562 C 9.324219 9.582031 9.375 9.558594 9.417969 9.527344 C 9.375 9.558594 9.324219 9.582031 9.273438 9.601562 Z M 9.273438 9.601562 "/>
<path style=" stroke:none;fill-rule:nonzero;fill:rgb(84.705882%,29.019608%,29.019608%);fill-opacity:1;" d="M 8.785156 7.390625 C 8.839844 7.429688 8.914062 7.449219 8.988281 7.449219 C 9.378906 8.160156 9.355469 8.894531 8.988281 9.652344 C 8.832031 9.652344 8.679688 9.609375 8.5625 9.527344 L 0.257812 3.519531 C 0.0351562 3.359375 0.0507812 3.105469 0.289062 2.957031 L 1.132812 2.441406 C 1.375 2.292969 1.753906 2.300781 1.976562 2.464844 Z M 8.785156 7.390625 "/>
<path style=" stroke:none;fill-rule:nonzero;fill:rgb(65.882353%,23.137255%,23.137255%);fill-opacity:1;" d="M 9.195312 7.390625 C 9.140625 7.429688 9.0625 7.449219 8.988281 7.449219 L 8.988281 9.652344 C 9.144531 9.652344 9.300781 9.609375 9.417969 9.527344 L 17.722656 3.519531 C 17.945312 3.359375 17.929688 3.105469 17.6875 2.957031 L 16.847656 2.441406 C 16.605469 2.292969 16.226562 2.300781 16.003906 2.464844 Z M 9.195312 7.390625 "/>
<path style=" stroke:none;fill-rule:nonzero;fill:rgb(0%,27.843137%,95.686275%);fill-opacity:1;" d="M 9.273438 5.648438 C 9.324219 5.628906 9.375 5.605469 9.417969 5.574219 C 9.375 5.605469 9.324219 5.628906 9.273438 5.648438 Z M 9.273438 5.648438 "/>
</g>
</svg>
